<svg width="11" height="12" viewBox="0 0 11 12" fill="none" xmlns="http://www.w3.org/2000/svg">
  <path d="M10.0614 5.29165L7.8823 7.65224L8.3969 10.9863C8.41929 11.1321 8.36542 11.2794 8.25767 11.3665C8.1968 11.4159 8.12438 11.4408 8.05197 11.4408C7.99634 11.4408 7.94037 11.426 7.8893 11.3961L5.19487 9.82194L2.50079 11.3957C2.38325 11.4649 2.24017 11.4536 2.13242 11.3661C2.02467 11.279 1.9708 11.1317 1.99319 10.9859L2.50779 7.65185L0.328323 5.29165C0.233168 5.18824 0.198534 5.03351 0.239815 4.89316C0.281095 4.75282 0.390593 4.6498 0.522481 4.62841L3.53421 4.14246L4.88107 1.1093C4.99896 0.843774 5.39078 0.843774 5.50867 1.1093L6.85553 4.14246L9.86726 4.62841C9.99915 4.6498 10.1086 4.75243 10.1499 4.89316C10.1912 5.0339 10.1566 5.18785 10.0614 5.29165V5.29165Z" />
</svg>
